<mxfile host="app.diagrams.net" modified="2023-05-24T13:58:01.546Z" agent="Mozilla/5.0 (Windows NT 10.0; Win64; x64) AppleWebKit/537.36 (KHTML, like Gecko) Chrome/113.0.0.0 Safari/537.36" etag="i_OUzAkU8QKgZCALorZL" version="21.3.3" type="github">
  <diagram name="Page-1" id="2YBvvXClWsGukQMizWep">
    <mxGraphModel dx="2074" dy="1124" grid="1" gridSize="10" guides="1" tooltips="1" connect="1" arrows="1" fold="1" page="1" pageScale="1" pageWidth="850" pageHeight="1100" math="0" shadow="0">
      <root>
        <mxCell id="0" />
        <mxCell id="1" parent="0" />
        <mxCell id="aM9ryv3xv72pqoxQDRHE-1" value="算法开发人员" style="shape=umlLifeline;perimeter=lifelinePerimeter;whiteSpace=wrap;html=1;container=0;dropTarget=0;collapsible=0;recursiveResize=0;outlineConnect=0;portConstraint=eastwest;newEdgeStyle={&quot;edgeStyle&quot;:&quot;elbowEdgeStyle&quot;,&quot;elbow&quot;:&quot;vertical&quot;,&quot;curved&quot;:0,&quot;rounded&quot;:0};" parent="1" vertex="1">
          <mxGeometry x="10" y="10" width="100" height="720" as="geometry" />
        </mxCell>
        <mxCell id="aM9ryv3xv72pqoxQDRHE-2" value="" style="html=1;points=[];perimeter=orthogonalPerimeter;outlineConnect=0;targetShapes=umlLifeline;portConstraint=eastwest;newEdgeStyle={&quot;edgeStyle&quot;:&quot;elbowEdgeStyle&quot;,&quot;elbow&quot;:&quot;vertical&quot;,&quot;curved&quot;:0,&quot;rounded&quot;:0};" parent="aM9ryv3xv72pqoxQDRHE-1" vertex="1">
          <mxGeometry x="45" y="70" width="10" height="370" as="geometry" />
        </mxCell>
        <mxCell id="GMgPl1QR8HGivyutwA11-79" value="" style="html=1;points=[];perimeter=orthogonalPerimeter;outlineConnect=0;targetShapes=umlLifeline;portConstraint=eastwest;newEdgeStyle={&quot;edgeStyle&quot;:&quot;elbowEdgeStyle&quot;,&quot;elbow&quot;:&quot;vertical&quot;,&quot;curved&quot;:0,&quot;rounded&quot;:0};" parent="aM9ryv3xv72pqoxQDRHE-1" vertex="1">
          <mxGeometry x="45" y="630" width="10" height="70" as="geometry" />
        </mxCell>
        <mxCell id="aM9ryv3xv72pqoxQDRHE-5" value="服务端" style="shape=umlLifeline;perimeter=lifelinePerimeter;whiteSpace=wrap;html=1;container=0;dropTarget=0;collapsible=0;recursiveResize=0;outlineConnect=0;portConstraint=eastwest;newEdgeStyle={&quot;edgeStyle&quot;:&quot;elbowEdgeStyle&quot;,&quot;elbow&quot;:&quot;vertical&quot;,&quot;curved&quot;:0,&quot;rounded&quot;:0};" parent="1" vertex="1">
          <mxGeometry x="170" y="10" width="100" height="720" as="geometry" />
        </mxCell>
        <mxCell id="aM9ryv3xv72pqoxQDRHE-6" value="" style="html=1;points=[];perimeter=orthogonalPerimeter;outlineConnect=0;targetShapes=umlLifeline;portConstraint=eastwest;newEdgeStyle={&quot;edgeStyle&quot;:&quot;elbowEdgeStyle&quot;,&quot;elbow&quot;:&quot;vertical&quot;,&quot;curved&quot;:0,&quot;rounded&quot;:0};" parent="aM9ryv3xv72pqoxQDRHE-5" vertex="1">
          <mxGeometry x="45" y="80" width="10" height="310" as="geometry" />
        </mxCell>
        <mxCell id="GMgPl1QR8HGivyutwA11-14" style="edgeStyle=orthogonalEdgeStyle;rounded=0;orthogonalLoop=1;jettySize=auto;html=1;elbow=vertical;targetPerimeterSpacing=0;curved=1;" parent="aM9ryv3xv72pqoxQDRHE-5" source="aM9ryv3xv72pqoxQDRHE-6" target="aM9ryv3xv72pqoxQDRHE-6" edge="1">
          <mxGeometry relative="1" as="geometry">
            <Array as="points">
              <mxPoint x="140" y="90" />
              <mxPoint x="140" y="110" />
            </Array>
          </mxGeometry>
        </mxCell>
        <mxCell id="GMgPl1QR8HGivyutwA11-17" value="验证登陆状态" style="edgeLabel;html=1;align=center;verticalAlign=middle;resizable=0;points=[];" parent="GMgPl1QR8HGivyutwA11-14" vertex="1" connectable="0">
          <mxGeometry x="-0.3824" y="-4" relative="1" as="geometry">
            <mxPoint y="-14" as="offset" />
          </mxGeometry>
        </mxCell>
        <mxCell id="GMgPl1QR8HGivyutwA11-60" value="" style="html=1;points=[];perimeter=orthogonalPerimeter;outlineConnect=0;targetShapes=umlLifeline;portConstraint=eastwest;newEdgeStyle={&quot;edgeStyle&quot;:&quot;elbowEdgeStyle&quot;,&quot;elbow&quot;:&quot;vertical&quot;,&quot;curved&quot;:0,&quot;rounded&quot;:0};" parent="aM9ryv3xv72pqoxQDRHE-5" vertex="1">
          <mxGeometry x="45" y="460" width="10" height="70" as="geometry" />
        </mxCell>
        <mxCell id="GMgPl1QR8HGivyutwA11-72" value="" style="html=1;points=[];perimeter=orthogonalPerimeter;outlineConnect=0;targetShapes=umlLifeline;portConstraint=eastwest;newEdgeStyle={&quot;edgeStyle&quot;:&quot;elbowEdgeStyle&quot;,&quot;elbow&quot;:&quot;vertical&quot;,&quot;curved&quot;:0,&quot;rounded&quot;:0};" parent="aM9ryv3xv72pqoxQDRHE-5" vertex="1">
          <mxGeometry x="45" y="560" width="10" height="60" as="geometry" />
        </mxCell>
        <mxCell id="GMgPl1QR8HGivyutwA11-81" value="" style="html=1;points=[];perimeter=orthogonalPerimeter;outlineConnect=0;targetShapes=umlLifeline;portConstraint=eastwest;newEdgeStyle={&quot;edgeStyle&quot;:&quot;elbowEdgeStyle&quot;,&quot;elbow&quot;:&quot;vertical&quot;,&quot;curved&quot;:0,&quot;rounded&quot;:0};" parent="aM9ryv3xv72pqoxQDRHE-5" vertex="1">
          <mxGeometry x="45" y="640" width="10" height="50" as="geometry" />
        </mxCell>
        <mxCell id="aM9ryv3xv72pqoxQDRHE-7" value="发起部署请求" style="html=1;verticalAlign=bottom;endArrow=block;edgeStyle=elbowEdgeStyle;elbow=vertical;curved=0;rounded=0;" parent="1" source="aM9ryv3xv72pqoxQDRHE-2" target="aM9ryv3xv72pqoxQDRHE-6" edge="1">
          <mxGeometry relative="1" as="geometry">
            <mxPoint x="165" y="100" as="sourcePoint" />
            <Array as="points">
              <mxPoint x="150" y="90" />
            </Array>
          </mxGeometry>
        </mxCell>
        <mxCell id="aM9ryv3xv72pqoxQDRHE-9" value="登录信息验证失败" style="html=1;verticalAlign=bottom;endArrow=block;edgeStyle=elbowEdgeStyle;elbow=vertical;curved=0;rounded=0;dashed=1;" parent="1" source="aM9ryv3xv72pqoxQDRHE-6" target="aM9ryv3xv72pqoxQDRHE-2" edge="1">
          <mxGeometry relative="1" as="geometry">
            <mxPoint x="145" y="130" as="sourcePoint" />
            <Array as="points">
              <mxPoint x="200" y="130" />
              <mxPoint x="170" y="150" />
              <mxPoint x="180" y="140" />
              <mxPoint x="180" y="180" />
              <mxPoint x="160" y="130" />
            </Array>
            <mxPoint x="70" y="130" as="targetPoint" />
          </mxGeometry>
        </mxCell>
        <mxCell id="GMgPl1QR8HGivyutwA11-2" value="" style="edgeStyle=elbowEdgeStyle;rounded=0;orthogonalLoop=1;jettySize=auto;html=1;elbow=vertical;curved=0;" parent="1" source="aM9ryv3xv72pqoxQDRHE-6" target="GMgPl1QR8HGivyutwA11-7" edge="1">
          <mxGeometry relative="1" as="geometry">
            <mxPoint x="385" y="175" as="targetPoint" />
            <Array as="points">
              <mxPoint x="360" y="150" />
              <mxPoint x="350" y="160" />
              <mxPoint x="280" y="170" />
              <mxPoint x="300" y="160" />
              <mxPoint x="290" y="150" />
              <mxPoint x="300" y="250" />
              <mxPoint x="320" y="150" />
              <mxPoint x="290" y="110" />
              <mxPoint x="380" y="140" />
            </Array>
          </mxGeometry>
        </mxCell>
        <mxCell id="GMgPl1QR8HGivyutwA11-18" value="获取算法信息" style="edgeLabel;html=1;align=center;verticalAlign=middle;resizable=0;points=[];" parent="GMgPl1QR8HGivyutwA11-2" vertex="1" connectable="0">
          <mxGeometry x="0.1346" relative="1" as="geometry">
            <mxPoint x="-10" y="-10" as="offset" />
          </mxGeometry>
        </mxCell>
        <mxCell id="GMgPl1QR8HGivyutwA11-6" value="数据库" style="shape=umlLifeline;perimeter=lifelinePerimeter;whiteSpace=wrap;html=1;container=0;dropTarget=0;collapsible=0;recursiveResize=0;outlineConnect=0;portConstraint=eastwest;newEdgeStyle={&quot;edgeStyle&quot;:&quot;elbowEdgeStyle&quot;,&quot;elbow&quot;:&quot;vertical&quot;,&quot;curved&quot;:0,&quot;rounded&quot;:0};" parent="1" vertex="1">
          <mxGeometry x="330" y="10" width="100" height="730" as="geometry" />
        </mxCell>
        <mxCell id="GMgPl1QR8HGivyutwA11-7" value="" style="html=1;points=[];perimeter=orthogonalPerimeter;outlineConnect=0;targetShapes=umlLifeline;portConstraint=eastwest;newEdgeStyle={&quot;edgeStyle&quot;:&quot;elbowEdgeStyle&quot;,&quot;elbow&quot;:&quot;vertical&quot;,&quot;curved&quot;:0,&quot;rounded&quot;:0};" parent="GMgPl1QR8HGivyutwA11-6" vertex="1">
          <mxGeometry x="45" y="140" width="10" height="40" as="geometry" />
        </mxCell>
        <mxCell id="GMgPl1QR8HGivyutwA11-43" value="" style="html=1;points=[];perimeter=orthogonalPerimeter;outlineConnect=0;targetShapes=umlLifeline;portConstraint=eastwest;newEdgeStyle={&quot;edgeStyle&quot;:&quot;elbowEdgeStyle&quot;,&quot;elbow&quot;:&quot;vertical&quot;,&quot;curved&quot;:0,&quot;rounded&quot;:0};" parent="GMgPl1QR8HGivyutwA11-6" vertex="1">
          <mxGeometry x="45" y="345" width="10" height="40" as="geometry" />
        </mxCell>
        <mxCell id="GMgPl1QR8HGivyutwA11-61" value="" style="html=1;points=[];perimeter=orthogonalPerimeter;outlineConnect=0;targetShapes=umlLifeline;portConstraint=eastwest;newEdgeStyle={&quot;edgeStyle&quot;:&quot;elbowEdgeStyle&quot;,&quot;elbow&quot;:&quot;vertical&quot;,&quot;curved&quot;:0,&quot;rounded&quot;:0};" parent="GMgPl1QR8HGivyutwA11-6" vertex="1">
          <mxGeometry x="45" y="490" width="10" height="40" as="geometry" />
        </mxCell>
        <mxCell id="GMgPl1QR8HGivyutwA11-71" value="" style="html=1;points=[];perimeter=orthogonalPerimeter;outlineConnect=0;targetShapes=umlLifeline;portConstraint=eastwest;newEdgeStyle={&quot;edgeStyle&quot;:&quot;elbowEdgeStyle&quot;,&quot;elbow&quot;:&quot;vertical&quot;,&quot;curved&quot;:0,&quot;rounded&quot;:0};" parent="GMgPl1QR8HGivyutwA11-6" vertex="1">
          <mxGeometry x="45" y="590" width="10" height="40" as="geometry" />
        </mxCell>
        <mxCell id="GMgPl1QR8HGivyutwA11-83" value="" style="html=1;points=[];perimeter=orthogonalPerimeter;outlineConnect=0;targetShapes=umlLifeline;portConstraint=eastwest;newEdgeStyle={&quot;edgeStyle&quot;:&quot;elbowEdgeStyle&quot;,&quot;elbow&quot;:&quot;vertical&quot;,&quot;curved&quot;:0,&quot;rounded&quot;:0};" parent="GMgPl1QR8HGivyutwA11-6" vertex="1">
          <mxGeometry x="45" y="650" width="10" height="40" as="geometry" />
        </mxCell>
        <mxCell id="GMgPl1QR8HGivyutwA11-8" value="Docker Service" style="shape=umlLifeline;perimeter=lifelinePerimeter;whiteSpace=wrap;html=1;container=0;dropTarget=0;collapsible=0;recursiveResize=0;outlineConnect=0;portConstraint=eastwest;newEdgeStyle={&quot;edgeStyle&quot;:&quot;elbowEdgeStyle&quot;,&quot;elbow&quot;:&quot;vertical&quot;,&quot;curved&quot;:0,&quot;rounded&quot;:0};" parent="1" vertex="1">
          <mxGeometry x="650" y="10" width="100" height="720" as="geometry" />
        </mxCell>
        <mxCell id="GMgPl1QR8HGivyutwA11-9" value="" style="html=1;points=[];perimeter=orthogonalPerimeter;outlineConnect=0;targetShapes=umlLifeline;portConstraint=eastwest;newEdgeStyle={&quot;edgeStyle&quot;:&quot;elbowEdgeStyle&quot;,&quot;elbow&quot;:&quot;vertical&quot;,&quot;curved&quot;:0,&quot;rounded&quot;:0};" parent="GMgPl1QR8HGivyutwA11-8" vertex="1">
          <mxGeometry x="45" y="200" width="10" height="310" as="geometry" />
        </mxCell>
        <mxCell id="GMgPl1QR8HGivyutwA11-54" style="edgeStyle=orthogonalEdgeStyle;rounded=0;orthogonalLoop=1;jettySize=auto;html=1;elbow=vertical;curved=1;" parent="GMgPl1QR8HGivyutwA11-8" source="GMgPl1QR8HGivyutwA11-9" target="GMgPl1QR8HGivyutwA11-9" edge="1">
          <mxGeometry relative="1" as="geometry">
            <Array as="points">
              <mxPoint x="130" y="280" />
              <mxPoint x="130" y="300" />
            </Array>
          </mxGeometry>
        </mxCell>
        <mxCell id="GMgPl1QR8HGivyutwA11-55" value="确认是否存在此镜像" style="edgeLabel;html=1;align=center;verticalAlign=middle;resizable=0;points=[];" parent="GMgPl1QR8HGivyutwA11-54" vertex="1" connectable="0">
          <mxGeometry x="-0.4732" y="-1" relative="1" as="geometry">
            <mxPoint x="18" y="-11" as="offset" />
          </mxGeometry>
        </mxCell>
        <mxCell id="GMgPl1QR8HGivyutwA11-10" value="宿主服务器" style="shape=umlLifeline;perimeter=lifelinePerimeter;whiteSpace=wrap;html=1;container=0;dropTarget=0;collapsible=0;recursiveResize=0;outlineConnect=0;portConstraint=eastwest;newEdgeStyle={&quot;edgeStyle&quot;:&quot;elbowEdgeStyle&quot;,&quot;elbow&quot;:&quot;vertical&quot;,&quot;curved&quot;:0,&quot;rounded&quot;:0};" parent="1" vertex="1">
          <mxGeometry x="490" y="10" width="100" height="720" as="geometry" />
        </mxCell>
        <mxCell id="GMgPl1QR8HGivyutwA11-11" value="" style="html=1;points=[];perimeter=orthogonalPerimeter;outlineConnect=0;targetShapes=umlLifeline;portConstraint=eastwest;newEdgeStyle={&quot;edgeStyle&quot;:&quot;elbowEdgeStyle&quot;,&quot;elbow&quot;:&quot;vertical&quot;,&quot;curved&quot;:0,&quot;rounded&quot;:0};" parent="GMgPl1QR8HGivyutwA11-10" vertex="1">
          <mxGeometry x="45" y="200" width="10" height="150" as="geometry" />
        </mxCell>
        <mxCell id="GMgPl1QR8HGivyutwA11-57" value="" style="html=1;points=[];perimeter=orthogonalPerimeter;outlineConnect=0;targetShapes=umlLifeline;portConstraint=eastwest;newEdgeStyle={&quot;edgeStyle&quot;:&quot;elbowEdgeStyle&quot;,&quot;elbow&quot;:&quot;vertical&quot;,&quot;curved&quot;:0,&quot;rounded&quot;:0};" parent="GMgPl1QR8HGivyutwA11-10" vertex="1">
          <mxGeometry x="45" y="450" width="10" height="20" as="geometry" />
        </mxCell>
        <mxCell id="GMgPl1QR8HGivyutwA11-68" value="" style="html=1;points=[];perimeter=orthogonalPerimeter;outlineConnect=0;targetShapes=umlLifeline;portConstraint=eastwest;newEdgeStyle={&quot;edgeStyle&quot;:&quot;elbowEdgeStyle&quot;,&quot;elbow&quot;:&quot;vertical&quot;,&quot;curved&quot;:0,&quot;rounded&quot;:0};" parent="GMgPl1QR8HGivyutwA11-10" vertex="1">
          <mxGeometry x="45" y="550" width="10" height="20" as="geometry" />
        </mxCell>
        <mxCell id="GMgPl1QR8HGivyutwA11-25" value="" style="edgeStyle=elbowEdgeStyle;rounded=0;orthogonalLoop=1;jettySize=auto;html=1;elbow=vertical;curved=0;dashed=1;" parent="1" source="GMgPl1QR8HGivyutwA11-7" target="aM9ryv3xv72pqoxQDRHE-6" edge="1">
          <mxGeometry relative="1" as="geometry">
            <Array as="points">
              <mxPoint x="350" y="180" />
              <mxPoint x="280" y="210" />
              <mxPoint x="360" y="220" />
              <mxPoint x="310" y="250" />
              <mxPoint x="330" y="240" />
            </Array>
          </mxGeometry>
        </mxCell>
        <mxCell id="GMgPl1QR8HGivyutwA11-26" value="算法信息获取成功" style="edgeLabel;html=1;align=center;verticalAlign=middle;resizable=0;points=[];" parent="GMgPl1QR8HGivyutwA11-25" vertex="1" connectable="0">
          <mxGeometry x="0.1238" relative="1" as="geometry">
            <mxPoint x="9" y="-10" as="offset" />
          </mxGeometry>
        </mxCell>
        <mxCell id="GMgPl1QR8HGivyutwA11-29" value="" style="edgeStyle=elbowEdgeStyle;rounded=0;orthogonalLoop=1;jettySize=auto;html=1;elbow=vertical;curved=0;endArrow=open;endFill=0;" parent="1" source="aM9ryv3xv72pqoxQDRHE-6" target="GMgPl1QR8HGivyutwA11-11" edge="1">
          <mxGeometry relative="1" as="geometry">
            <Array as="points">
              <mxPoint x="420" y="210" />
              <mxPoint x="470" y="240" />
              <mxPoint x="430" y="250" />
              <mxPoint x="410" y="290" />
            </Array>
          </mxGeometry>
        </mxCell>
        <mxCell id="GMgPl1QR8HGivyutwA11-30" value="发送部署指令" style="edgeLabel;html=1;align=center;verticalAlign=middle;resizable=0;points=[];" parent="GMgPl1QR8HGivyutwA11-29" vertex="1" connectable="0">
          <mxGeometry x="-0.3991" y="-1" relative="1" as="geometry">
            <mxPoint x="-18" y="-11" as="offset" />
          </mxGeometry>
        </mxCell>
        <mxCell id="GMgPl1QR8HGivyutwA11-33" value="" style="edgeStyle=elbowEdgeStyle;rounded=0;orthogonalLoop=1;jettySize=auto;html=1;elbow=vertical;curved=0;" parent="1" source="GMgPl1QR8HGivyutwA11-11" target="GMgPl1QR8HGivyutwA11-9" edge="1">
          <mxGeometry relative="1" as="geometry">
            <Array as="points">
              <mxPoint x="620" y="220" />
              <mxPoint x="650" y="270" />
              <mxPoint x="670" y="280" />
              <mxPoint x="630" y="310" />
              <mxPoint x="610" y="390" />
              <mxPoint x="600" y="310" />
            </Array>
          </mxGeometry>
        </mxCell>
        <mxCell id="GMgPl1QR8HGivyutwA11-34" value="获取Docker基本信息" style="edgeLabel;html=1;align=center;verticalAlign=middle;resizable=0;points=[];" parent="GMgPl1QR8HGivyutwA11-33" vertex="1" connectable="0">
          <mxGeometry x="0.0208" y="1" relative="1" as="geometry">
            <mxPoint x="-4" y="-9" as="offset" />
          </mxGeometry>
        </mxCell>
        <mxCell id="GMgPl1QR8HGivyutwA11-35" value="" style="edgeStyle=elbowEdgeStyle;rounded=0;orthogonalLoop=1;jettySize=auto;html=1;elbow=vertical;curved=0;dashed=1;" parent="1" source="GMgPl1QR8HGivyutwA11-11" target="aM9ryv3xv72pqoxQDRHE-6" edge="1">
          <mxGeometry relative="1" as="geometry">
            <Array as="points">
              <mxPoint x="480" y="330" />
              <mxPoint x="480" y="380" />
              <mxPoint x="450" y="390" />
              <mxPoint x="500" y="350" />
              <mxPoint x="460" y="320" />
              <mxPoint x="350" y="410" />
              <mxPoint x="340" y="330" />
            </Array>
          </mxGeometry>
        </mxCell>
        <mxCell id="GMgPl1QR8HGivyutwA11-36" value="指令开始执行" style="edgeLabel;html=1;align=center;verticalAlign=middle;resizable=0;points=[];" parent="GMgPl1QR8HGivyutwA11-35" vertex="1" connectable="0">
          <mxGeometry x="0.3733" y="-1" relative="1" as="geometry">
            <mxPoint x="-22" y="-9" as="offset" />
          </mxGeometry>
        </mxCell>
        <mxCell id="GMgPl1QR8HGivyutwA11-42" value="" style="edgeStyle=elbowEdgeStyle;rounded=0;orthogonalLoop=1;jettySize=auto;html=1;elbow=vertical;curved=0;" parent="1" source="aM9ryv3xv72pqoxQDRHE-6" target="GMgPl1QR8HGivyutwA11-43" edge="1">
          <mxGeometry relative="1" as="geometry">
            <Array as="points">
              <mxPoint x="340" y="360" />
              <mxPoint x="260" y="410" />
              <mxPoint x="350" y="400" />
              <mxPoint x="340" y="440" />
              <mxPoint x="310" y="380" />
              <mxPoint x="260" y="450" />
              <mxPoint x="270" y="430" />
              <mxPoint x="290" y="370" />
              <mxPoint x="360" y="380" />
              <mxPoint x="360" y="370" />
              <mxPoint x="350" y="370" />
              <mxPoint x="360" y="360" />
            </Array>
          </mxGeometry>
        </mxCell>
        <mxCell id="GMgPl1QR8HGivyutwA11-44" value="更新部署状态" style="edgeLabel;html=1;align=center;verticalAlign=middle;resizable=0;points=[];" parent="GMgPl1QR8HGivyutwA11-42" vertex="1" connectable="0">
          <mxGeometry x="0.1429" y="-1" relative="1" as="geometry">
            <mxPoint x="-11" y="-11" as="offset" />
          </mxGeometry>
        </mxCell>
        <mxCell id="GMgPl1QR8HGivyutwA11-45" value="" style="edgeStyle=elbowEdgeStyle;rounded=0;orthogonalLoop=1;jettySize=auto;html=1;elbow=vertical;curved=0;dashed=1;" parent="1" source="GMgPl1QR8HGivyutwA11-43" target="aM9ryv3xv72pqoxQDRHE-6" edge="1">
          <mxGeometry relative="1" as="geometry">
            <Array as="points">
              <mxPoint x="340" y="390" />
              <mxPoint x="330" y="440" />
              <mxPoint x="360" y="430" />
              <mxPoint x="320" y="470" />
              <mxPoint x="250" y="440" />
              <mxPoint x="270" y="410" />
              <mxPoint x="350" y="480" />
              <mxPoint x="260" y="490" />
              <mxPoint x="280" y="470" />
              <mxPoint x="350" y="410" />
            </Array>
          </mxGeometry>
        </mxCell>
        <mxCell id="GMgPl1QR8HGivyutwA11-46" value="更新成功" style="edgeLabel;html=1;align=center;verticalAlign=middle;resizable=0;points=[];" parent="GMgPl1QR8HGivyutwA11-45" vertex="1" connectable="0">
          <mxGeometry x="-0.1581" y="1" relative="1" as="geometry">
            <mxPoint x="-12" y="-11" as="offset" />
          </mxGeometry>
        </mxCell>
        <mxCell id="GMgPl1QR8HGivyutwA11-47" value="" style="edgeStyle=elbowEdgeStyle;rounded=0;orthogonalLoop=1;jettySize=auto;html=1;elbow=vertical;curved=0;dashed=1;" parent="1" source="aM9ryv3xv72pqoxQDRHE-6" target="aM9ryv3xv72pqoxQDRHE-2" edge="1">
          <mxGeometry relative="1" as="geometry">
            <Array as="points">
              <mxPoint x="150" y="400" />
              <mxPoint x="200" y="440" />
              <mxPoint x="130" y="450" />
              <mxPoint x="200" y="430" />
              <mxPoint x="150" y="420" />
              <mxPoint x="190" y="390" />
              <mxPoint x="120" y="430" />
            </Array>
          </mxGeometry>
        </mxCell>
        <mxCell id="GMgPl1QR8HGivyutwA11-48" value="算法开始部署" style="edgeLabel;html=1;align=center;verticalAlign=middle;resizable=0;points=[];" parent="GMgPl1QR8HGivyutwA11-47" vertex="1" connectable="0">
          <mxGeometry x="-0.0057" y="-2" relative="1" as="geometry">
            <mxPoint y="-8" as="offset" />
          </mxGeometry>
        </mxCell>
        <mxCell id="GMgPl1QR8HGivyutwA11-49" value="" style="edgeStyle=elbowEdgeStyle;rounded=0;orthogonalLoop=1;jettySize=auto;html=1;elbow=vertical;curved=0;dashed=1;" parent="1" source="GMgPl1QR8HGivyutwA11-9" target="GMgPl1QR8HGivyutwA11-11" edge="1">
          <mxGeometry relative="1" as="geometry">
            <Array as="points">
              <mxPoint x="600" y="250" />
              <mxPoint x="630" y="300" />
              <mxPoint x="580" y="310" />
              <mxPoint x="640" y="350" />
            </Array>
          </mxGeometry>
        </mxCell>
        <mxCell id="GMgPl1QR8HGivyutwA11-50" value="Docker运行状况" style="edgeLabel;html=1;align=center;verticalAlign=middle;resizable=0;points=[];" parent="GMgPl1QR8HGivyutwA11-49" vertex="1" connectable="0">
          <mxGeometry x="-0.0133" y="1" relative="1" as="geometry">
            <mxPoint y="-11" as="offset" />
          </mxGeometry>
        </mxCell>
        <mxCell id="GMgPl1QR8HGivyutwA11-51" value="" style="edgeStyle=elbowEdgeStyle;rounded=0;orthogonalLoop=1;jettySize=auto;html=1;elbow=vertical;curved=0;" parent="1" source="GMgPl1QR8HGivyutwA11-11" target="GMgPl1QR8HGivyutwA11-9" edge="1">
          <mxGeometry relative="1" as="geometry">
            <Array as="points">
              <mxPoint x="620" y="280" />
              <mxPoint x="600" y="330" />
              <mxPoint x="630" y="320" />
              <mxPoint x="640" y="330" />
              <mxPoint x="610" y="340" />
              <mxPoint x="630" y="390" />
            </Array>
          </mxGeometry>
        </mxCell>
        <mxCell id="GMgPl1QR8HGivyutwA11-52" value="拉取镜像并部署" style="edgeLabel;html=1;align=center;verticalAlign=middle;resizable=0;points=[];" parent="GMgPl1QR8HGivyutwA11-51" vertex="1" connectable="0">
          <mxGeometry x="-0.0857" y="3" relative="1" as="geometry">
            <mxPoint x="6" y="-7" as="offset" />
          </mxGeometry>
        </mxCell>
        <mxCell id="GMgPl1QR8HGivyutwA11-53" value="" style="edgeStyle=elbowEdgeStyle;rounded=0;orthogonalLoop=1;jettySize=auto;html=1;elbow=vertical;curved=0;" parent="1" source="GMgPl1QR8HGivyutwA11-9" target="GMgPl1QR8HGivyutwA11-11" edge="1">
          <mxGeometry relative="1" as="geometry">
            <Array as="points">
              <mxPoint x="670" y="320" />
              <mxPoint x="660" y="370" />
              <mxPoint x="630" y="420" />
              <mxPoint x="650" y="370" />
            </Array>
          </mxGeometry>
        </mxCell>
        <mxCell id="GMgPl1QR8HGivyutwA11-56" value="存在镜像并开始部署" style="edgeLabel;html=1;align=center;verticalAlign=middle;resizable=0;points=[];" parent="GMgPl1QR8HGivyutwA11-53" vertex="1" connectable="0">
          <mxGeometry x="-0.0171" y="-2" relative="1" as="geometry">
            <mxPoint y="-8" as="offset" />
          </mxGeometry>
        </mxCell>
        <mxCell id="GMgPl1QR8HGivyutwA11-58" value="" style="edgeStyle=elbowEdgeStyle;rounded=0;orthogonalLoop=1;jettySize=auto;html=1;elbow=vertical;curved=0;endArrow=open;endFill=0;" parent="1" source="GMgPl1QR8HGivyutwA11-9" target="GMgPl1QR8HGivyutwA11-57" edge="1">
          <mxGeometry relative="1" as="geometry">
            <Array as="points">
              <mxPoint x="670" y="460" />
              <mxPoint x="650" y="430" />
              <mxPoint x="610" y="420" />
            </Array>
          </mxGeometry>
        </mxCell>
        <mxCell id="GMgPl1QR8HGivyutwA11-59" value="持续生成日志" style="edgeLabel;html=1;align=center;verticalAlign=middle;resizable=0;points=[];" parent="GMgPl1QR8HGivyutwA11-58" vertex="1" connectable="0">
          <mxGeometry x="-0.1619" y="1" relative="1" as="geometry">
            <mxPoint x="-12" y="-11" as="offset" />
          </mxGeometry>
        </mxCell>
        <mxCell id="GMgPl1QR8HGivyutwA11-62" value="" style="edgeStyle=elbowEdgeStyle;rounded=0;orthogonalLoop=1;jettySize=auto;html=1;elbow=vertical;curved=0;endArrow=open;endFill=0;" parent="1" source="GMgPl1QR8HGivyutwA11-57" target="GMgPl1QR8HGivyutwA11-60" edge="1">
          <mxGeometry relative="1" as="geometry">
            <Array as="points">
              <mxPoint x="440" y="470" />
            </Array>
          </mxGeometry>
        </mxCell>
        <mxCell id="GMgPl1QR8HGivyutwA11-63" value="发起日志存储请求" style="edgeLabel;html=1;align=center;verticalAlign=middle;resizable=0;points=[];" parent="GMgPl1QR8HGivyutwA11-62" vertex="1" connectable="0">
          <mxGeometry x="0.5484" y="-2" relative="1" as="geometry">
            <mxPoint x="5" y="-8" as="offset" />
          </mxGeometry>
        </mxCell>
        <mxCell id="GMgPl1QR8HGivyutwA11-64" value="" style="edgeStyle=elbowEdgeStyle;rounded=0;orthogonalLoop=1;jettySize=auto;html=1;elbow=vertical;curved=0;" parent="1" source="GMgPl1QR8HGivyutwA11-60" target="GMgPl1QR8HGivyutwA11-61" edge="1">
          <mxGeometry relative="1" as="geometry">
            <Array as="points">
              <mxPoint x="310" y="500" />
              <mxPoint x="340" y="490" />
            </Array>
          </mxGeometry>
        </mxCell>
        <mxCell id="GMgPl1QR8HGivyutwA11-65" value="存储日志" style="edgeLabel;html=1;align=center;verticalAlign=middle;resizable=0;points=[];" parent="GMgPl1QR8HGivyutwA11-64" vertex="1" connectable="0">
          <mxGeometry x="-0.1352" relative="1" as="geometry">
            <mxPoint x="10" y="-10" as="offset" />
          </mxGeometry>
        </mxCell>
        <mxCell id="GMgPl1QR8HGivyutwA11-66" value="" style="edgeStyle=elbowEdgeStyle;rounded=0;orthogonalLoop=1;jettySize=auto;html=1;elbow=vertical;curved=0;" parent="1" source="GMgPl1QR8HGivyutwA11-61" target="GMgPl1QR8HGivyutwA11-60" edge="1">
          <mxGeometry relative="1" as="geometry">
            <Array as="points">
              <mxPoint x="280" y="530" />
            </Array>
          </mxGeometry>
        </mxCell>
        <mxCell id="GMgPl1QR8HGivyutwA11-67" value="日志存储成功" style="edgeLabel;html=1;align=center;verticalAlign=middle;resizable=0;points=[];" parent="GMgPl1QR8HGivyutwA11-66" vertex="1" connectable="0">
          <mxGeometry x="0.0971" y="-2" relative="1" as="geometry">
            <mxPoint x="7" y="-8" as="offset" />
          </mxGeometry>
        </mxCell>
        <mxCell id="GMgPl1QR8HGivyutwA11-69" value="" style="edgeStyle=elbowEdgeStyle;rounded=0;orthogonalLoop=1;jettySize=auto;html=1;elbow=vertical;curved=0;" parent="1" source="GMgPl1QR8HGivyutwA11-9" target="GMgPl1QR8HGivyutwA11-68" edge="1">
          <mxGeometry relative="1" as="geometry">
            <Array as="points">
              <mxPoint x="670" y="560" />
              <mxPoint x="660" y="550" />
            </Array>
          </mxGeometry>
        </mxCell>
        <mxCell id="GMgPl1QR8HGivyutwA11-70" value="部署完成" style="edgeLabel;html=1;align=center;verticalAlign=middle;resizable=0;points=[];" parent="GMgPl1QR8HGivyutwA11-69" vertex="1" connectable="0">
          <mxGeometry x="0.059" y="-1" relative="1" as="geometry">
            <mxPoint y="-9" as="offset" />
          </mxGeometry>
        </mxCell>
        <mxCell id="GMgPl1QR8HGivyutwA11-73" value="" style="edgeStyle=elbowEdgeStyle;rounded=0;orthogonalLoop=1;jettySize=auto;html=1;elbow=vertical;curved=0;endArrow=open;endFill=0;" parent="1" source="GMgPl1QR8HGivyutwA11-68" target="GMgPl1QR8HGivyutwA11-72" edge="1">
          <mxGeometry relative="1" as="geometry">
            <Array as="points">
              <mxPoint x="490" y="570" />
              <mxPoint x="520" y="560" />
            </Array>
          </mxGeometry>
        </mxCell>
        <mxCell id="GMgPl1QR8HGivyutwA11-74" value="部署完成" style="edgeLabel;html=1;align=center;verticalAlign=middle;resizable=0;points=[];" parent="GMgPl1QR8HGivyutwA11-73" vertex="1" connectable="0">
          <mxGeometry x="0.5668" y="1" relative="1" as="geometry">
            <mxPoint x="8" y="-16" as="offset" />
          </mxGeometry>
        </mxCell>
        <mxCell id="GMgPl1QR8HGivyutwA11-75" value="" style="edgeStyle=elbowEdgeStyle;rounded=0;orthogonalLoop=1;jettySize=auto;html=1;elbow=vertical;curved=0;" parent="1" source="GMgPl1QR8HGivyutwA11-72" target="GMgPl1QR8HGivyutwA11-71" edge="1">
          <mxGeometry relative="1" as="geometry">
            <Array as="points">
              <mxPoint x="360" y="600" />
              <mxPoint x="260" y="590" />
              <mxPoint x="320" y="600" />
            </Array>
          </mxGeometry>
        </mxCell>
        <mxCell id="GMgPl1QR8HGivyutwA11-76" value="更新部署状态" style="edgeLabel;html=1;align=center;verticalAlign=middle;resizable=0;points=[];" parent="GMgPl1QR8HGivyutwA11-75" vertex="1" connectable="0">
          <mxGeometry x="-0.1012" y="1" relative="1" as="geometry">
            <mxPoint x="5" y="-9" as="offset" />
          </mxGeometry>
        </mxCell>
        <mxCell id="GMgPl1QR8HGivyutwA11-77" value="" style="edgeStyle=elbowEdgeStyle;rounded=0;orthogonalLoop=1;jettySize=auto;html=1;elbow=vertical;curved=0;dashed=1;" parent="1" source="GMgPl1QR8HGivyutwA11-71" target="GMgPl1QR8HGivyutwA11-72" edge="1">
          <mxGeometry relative="1" as="geometry">
            <Array as="points">
              <mxPoint x="340" y="630" />
              <mxPoint x="250" y="620" />
              <mxPoint x="350" y="630" />
            </Array>
          </mxGeometry>
        </mxCell>
        <mxCell id="GMgPl1QR8HGivyutwA11-78" value="更新成功" style="edgeLabel;html=1;align=center;verticalAlign=middle;resizable=0;points=[];" parent="GMgPl1QR8HGivyutwA11-77" vertex="1" connectable="0">
          <mxGeometry x="0.0133" y="1" relative="1" as="geometry">
            <mxPoint y="-11" as="offset" />
          </mxGeometry>
        </mxCell>
        <mxCell id="GMgPl1QR8HGivyutwA11-80" value="" style="edgeStyle=elbowEdgeStyle;rounded=0;orthogonalLoop=1;jettySize=auto;html=1;elbow=vertical;curved=0;" parent="1" source="GMgPl1QR8HGivyutwA11-79" target="GMgPl1QR8HGivyutwA11-81" edge="1">
          <mxGeometry relative="1" as="geometry">
            <Array as="points">
              <mxPoint x="160" y="650" />
              <mxPoint x="150" y="660" />
              <mxPoint x="130" y="680" />
            </Array>
          </mxGeometry>
        </mxCell>
        <mxCell id="GMgPl1QR8HGivyutwA11-87" value="查看算法部署情况" style="edgeLabel;html=1;align=center;verticalAlign=middle;resizable=0;points=[];" parent="GMgPl1QR8HGivyutwA11-80" vertex="1" connectable="0">
          <mxGeometry x="-0.1124" y="-1" relative="1" as="geometry">
            <mxPoint x="9" y="-11" as="offset" />
          </mxGeometry>
        </mxCell>
        <mxCell id="GMgPl1QR8HGivyutwA11-84" value="" style="edgeStyle=elbowEdgeStyle;rounded=0;orthogonalLoop=1;jettySize=auto;html=1;elbow=vertical;curved=0;" parent="1" source="GMgPl1QR8HGivyutwA11-81" target="GMgPl1QR8HGivyutwA11-83" edge="1">
          <mxGeometry relative="1" as="geometry">
            <Array as="points">
              <mxPoint x="350" y="660" />
              <mxPoint x="270" y="670" />
            </Array>
          </mxGeometry>
        </mxCell>
        <mxCell id="GMgPl1QR8HGivyutwA11-85" value="获取算法部署详情" style="edgeLabel;html=1;align=center;verticalAlign=middle;resizable=0;points=[];" parent="GMgPl1QR8HGivyutwA11-84" vertex="1" connectable="0">
          <mxGeometry x="-0.0286" y="-1" relative="1" as="geometry">
            <mxPoint y="-11" as="offset" />
          </mxGeometry>
        </mxCell>
        <mxCell id="GMgPl1QR8HGivyutwA11-88" value="" style="edgeStyle=elbowEdgeStyle;rounded=0;orthogonalLoop=1;jettySize=auto;html=1;elbow=vertical;curved=0;" parent="1" source="GMgPl1QR8HGivyutwA11-83" target="GMgPl1QR8HGivyutwA11-81" edge="1">
          <mxGeometry relative="1" as="geometry">
            <Array as="points">
              <mxPoint x="280" y="690" />
            </Array>
          </mxGeometry>
        </mxCell>
        <mxCell id="GMgPl1QR8HGivyutwA11-89" value="获取成功" style="edgeLabel;html=1;align=center;verticalAlign=middle;resizable=0;points=[];" parent="GMgPl1QR8HGivyutwA11-88" vertex="1" connectable="0">
          <mxGeometry x="0.0438" y="2" relative="1" as="geometry">
            <mxPoint x="3" y="-12" as="offset" />
          </mxGeometry>
        </mxCell>
        <mxCell id="GMgPl1QR8HGivyutwA11-90" value="" style="edgeStyle=elbowEdgeStyle;rounded=0;orthogonalLoop=1;jettySize=auto;html=1;elbow=vertical;curved=0;" parent="1" source="GMgPl1QR8HGivyutwA11-81" target="GMgPl1QR8HGivyutwA11-79" edge="1">
          <mxGeometry relative="1" as="geometry">
            <Array as="points">
              <mxPoint x="110" y="700" />
              <mxPoint x="100" y="700" />
              <mxPoint x="90" y="700" />
            </Array>
          </mxGeometry>
        </mxCell>
        <mxCell id="GMgPl1QR8HGivyutwA11-91" value="返回算法部署详情" style="edgeLabel;html=1;align=center;verticalAlign=middle;resizable=0;points=[];" parent="GMgPl1QR8HGivyutwA11-90" vertex="1" connectable="0">
          <mxGeometry x="-0.0705" y="-1" relative="1" as="geometry">
            <mxPoint x="-5" y="-9" as="offset" />
          </mxGeometry>
        </mxCell>
      </root>
    </mxGraphModel>
  </diagram>
</mxfile>
